<svg width="500" height="500" viewBox="0 0 500 500" fill="none" xmlns="http://www.w3.org/2000/svg">
<g clip-path="url(#clip0_99_2)">
<path d="M358.45 500C436.626 500 500 493.962 500 486.513C500 479.064 436.626 473.026 358.45 473.026C280.274 473.026 216.899 479.064 216.899 486.513C216.899 493.962 280.274 500 358.45 500Z" fill="white"/>
<path opacity="0.1" d="M358.45 500C436.626 500 500 493.962 500 486.513C500 479.064 436.626 473.026 358.45 473.026C280.274 473.026 216.899 479.064 216.899 486.513C216.899 493.962 280.274 500 358.45 500Z" fill="#292A2E"/>
<path d="M123.47 285.952H78.3503V299.508H123.47V285.952Z" fill="#F4F4F4"/>
<path opacity="0.05" d="M90.3215 285.952H84.4095V299.508H90.3215V285.952Z" fill="#292A2E"/>
<path d="M117.705 288.899H93.1221V296.932H117.705V288.899Z" fill="white"/>
<path d="M159.459 287.721L117.535 268.813L112.281 281.236L154.205 300.144L159.459 287.721Z" fill="#F4F4F4"/>
<path opacity="0.05" d="M159.459 287.721L117.535 268.813L112.281 281.236L154.205 300.144L159.459 287.721Z" fill="#292A2E"/>
<path d="M153.829 285.182L148.336 282.704L143.081 295.127L148.575 297.604L153.829 285.182Z" fill="white"/>
<path d="M144.591 284.231L121.75 273.93L118.636 281.291L141.477 291.592L144.591 284.231Z" fill="white"/>
<path opacity="0.05" d="M159.538 457.679H148.199V465.498H159.538V457.679Z" fill="#292A2E"/>
<path opacity="0.05" d="M43.6121 457.679H32.2735V465.498H43.6121V457.679Z" fill="#292A2E"/>
<path d="M169.932 300.144H21.8802V457.414H169.932V300.144Z" fill="#F4F4F4"/>
<path opacity="0.03" d="M169.932 300.144H21.8802V457.414H169.932V300.144Z" fill="#292A2E"/>
<path d="M197.368 300.144H49.3162V457.414H197.368V300.144Z" fill="#F4F4F4"/>
<path opacity="0.05" d="M186.974 457.679H175.635V465.498H186.974V457.679Z" fill="#292A2E"/>
<path opacity="0.05" d="M71.0487 457.679H59.7101V465.498H71.0487V457.679Z" fill="#292A2E"/>
<path opacity="0.7" d="M191.811 307.51H54.8743V337.725H191.811V307.51Z" fill="white"/>
<path opacity="0.7" d="M191.811 345.12H54.8743V375.335H191.811V345.12Z" fill="white"/>
<path opacity="0.7" d="M191.811 382.73H54.8743V412.945H191.811V382.73Z" fill="white"/>
<path opacity="0.05" d="M123.343 326.845C125.604 326.845 127.437 324.952 127.437 322.617C127.437 320.283 125.604 318.39 123.343 318.39C121.081 318.39 119.248 320.283 119.248 322.617C119.248 324.952 121.081 326.845 123.343 326.845Z" fill="#292A2E"/>
<path opacity="0.05" d="M123.343 364.455C125.604 364.455 127.437 362.562 127.437 360.227C127.437 357.893 125.604 356 123.343 356C121.081 356 119.248 357.893 119.248 360.227C119.248 362.562 121.081 364.455 123.343 364.455Z" fill="#292A2E"/>
<path opacity="0.05" d="M123.343 402.066C125.604 402.066 127.437 400.173 127.437 397.838C127.437 395.503 125.604 393.61 123.343 393.61C121.081 393.61 119.248 395.503 119.248 397.838C119.248 400.173 121.081 402.066 123.343 402.066Z" fill="#292A2E"/>
<path opacity="0.7" d="M191.811 421.188H54.8743V451.403H191.811V421.188Z" fill="white"/>
<path opacity="0.05" d="M123.343 440.523C125.604 440.523 127.437 438.63 127.437 436.295C127.437 433.961 125.604 432.068 123.343 432.068C121.081 432.068 119.248 433.961 119.248 436.295C119.248 438.63 121.081 440.523 123.343 440.523Z" fill="#292A2E"/>
<path d="M74.4358 144.047H161.98V26.3856L74.4358 26.3856L74.4358 144.047Z" fill="#F4F4F4"/>
<path d="M74.4364 26.3857H71.5964V144.047H74.4364V26.3857Z" fill="#F4F4F4"/>
<path opacity="0.05" d="M74.4364 26.3857H71.5964V144.047H74.4364V26.3857Z" fill="#292A2E"/>
<path opacity="0.05" d="M90.3838 122.613H146.033V47.8186H90.3838V122.613Z" fill="#292A2E"/>
<path opacity="0.03" d="M90.3838 122.613H93.2839L93.2839 47.8186H90.3838L90.3838 122.613Z" fill="#292A2E"/>
<path d="M2.83942 247.589H74.4358L74.4358 172.981H2.83942L2.83942 247.589Z" fill="#F4F4F4"/>
<path opacity="0.05" d="M15.8817 233.998H61.3935L61.3935 186.572H15.8817L15.8817 233.998Z" fill="#292A2E"/>
<path d="M2.83999 172.981H0V247.59H2.83999V172.981Z" fill="#F4F4F4"/>
<path opacity="0.05" d="M2.83999 172.981H0V247.59H2.83999V172.981Z" fill="#292A2E"/>
<path opacity="0.03" d="M15.8817 233.998H18.7818L18.7818 186.572H15.8817L15.8817 233.998Z" fill="#292A2E"/>
<path d="M439.424 26.1057H256.735V214.747H439.424V26.1057Z" fill="#F4F4F4"/>
<path d="M256.735 26.1057H254.641V214.747H256.735V26.1057Z" fill="#F4F4F4"/>
<path opacity="0.05" d="M256.735 26.1057H254.641V214.747H256.735V26.1057Z" fill="#292A2E"/>
<path opacity="0.05" d="M300.992 156.095V106.74H340.145V135.414H400.793V186.185H426.57V214.747H400.793H395.828H265.523V156.095H300.992Z" fill="#292A2E"/>
<path opacity="0.34" d="M335.119 112.099H306.607V117.457H335.119V112.099Z" fill="#FFFFFA"/>
<path opacity="0.34" d="M335.119 123.203H306.607V128.562H335.119V123.203Z" fill="#FFFFFA"/>
<path opacity="0.34" d="M335.119 134.308H306.607V139.667H335.119V134.308Z" fill="#FFFFFA"/>
<path opacity="0.34" d="M275.834 161.297H270.578V166.655H275.834V161.297Z" fill="#FFFFFA"/>
<path opacity="0.34" d="M275.834 172.401H270.578V177.76H275.834V172.401Z" fill="#FFFFFA"/>
<path opacity="0.34" d="M275.834 183.506H270.578V188.864H275.834V183.506Z" fill="#FFFFFA"/>
<path opacity="0.34" d="M285.556 161.297H280.301V166.655H285.556V161.297Z" fill="#FFFFFA"/>
<path opacity="0.34" d="M285.556 172.401H280.301V177.76H285.556V172.401Z" fill="#FFFFFA"/>
<path opacity="0.34" d="M285.556 183.506H280.301V188.864H285.556V183.506Z" fill="#FFFFFA"/>
<path opacity="0.34" d="M295.015 161.297H289.76V166.655H295.015V161.297Z" fill="#FFFFFA"/>
<path opacity="0.34" d="M295.015 172.401H289.76V177.76H295.015V172.401Z" fill="#FFFFFA"/>
<path opacity="0.34" d="M295.015 183.506H289.76V188.864H295.015V183.506Z" fill="#FFFFFA"/>
<path d="M256.735 119.368H293.494V26.105H296.535V119.368H395.828V26.105H398.868V119.368H439.424V122.507H398.868V214.747H395.828V122.507H296.535V214.747H293.494V122.507H256.735V119.368Z" fill="white"/>
<path d="M446.702 214.519H249.457V220.793H446.702V214.519Z" fill="#F4F4F4"/>
<path opacity="0.1" d="M446.702 214.519H249.457V220.793H446.702V214.519Z" fill="#292A2E"/>
<path opacity="0.1" d="M249.457 214.519H246.609V220.793H249.457V214.519Z" fill="#292A2E"/>
<path opacity="0.1" d="M249.457 214.519H246.609V220.793H249.457V214.519Z" fill="#292A2E"/>
<path d="M243.869 7.25818H68.8895C60.7831 7.25818 54.2115 14.0438 54.2115 22.4144V241.756C54.2115 250.126 60.7831 256.912 68.8895 256.912H243.869C251.975 256.912 258.547 250.126 258.547 241.756V22.4144C258.547 14.0438 251.975 7.25818 243.869 7.25818Z" fill="#292A2E"/>
<path d="M250.336 0.580017H75.357C67.2506 0.580017 60.679 7.36567 60.679 15.7362V235.078C60.679 243.448 67.2506 250.234 75.357 250.234H250.336C258.443 250.234 265.014 243.448 265.014 235.078V15.7362C265.014 7.36567 258.443 0.580017 250.336 0.580017Z" fill="white"/>
<path d="M250.336 250.814H75.357C66.9539 250.814 60.1173 243.754 60.1173 235.078V15.7362C60.1173 7.05927 66.9539 0 75.357 0H250.336C258.739 0 265.576 7.05927 265.576 15.7362V235.078C265.576 243.754 258.739 250.814 250.336 250.814ZM75.357 1.16001C67.5734 1.16001 61.2407 7.69844 61.2407 15.7362V235.078C61.2407 243.115 67.5734 249.654 75.357 249.654H250.336C258.12 249.654 264.452 243.115 264.452 235.078V15.7362C264.452 7.69902 258.12 1.16001 250.336 1.16001H75.357Z" fill="#292A2E"/>
<path d="M408.097 246.836C380.128 246.836 357.454 254.715 357.454 264.434V285.385H458.739V264.434C458.739 254.715 436.066 246.836 408.097 246.836Z" fill="#FFD803"/>
<path opacity="0.49" d="M408.097 246.836C380.128 246.836 357.454 254.715 357.454 264.434V285.385H458.739V264.434C458.739 254.715 436.066 246.836 408.097 246.836Z" fill="white"/>
<path opacity="0.49" d="M444.944 264.436V285.383H357.454V264.436C357.454 255.527 376.493 248.167 401.198 247.004C425.903 248.167 444.943 255.527 444.943 264.436H444.944Z" fill="white"/>
<path d="M458.739 488.952H460.439L458.739 283.526L457.054 285.281L458.256 428.777L398.258 429.83L397.047 285.266L395.362 285.281L396.573 429.859L360.355 430.495L359.139 285.266L357.454 283.541L359.154 488.952L360.824 488.937L360.369 432.235L396.587 431.6L397.047 488.952L398.733 488.937L398.273 431.57L458.27 430.517L458.739 488.952Z" fill="#292A2E"/>
<path d="M305.985 458.197C305.985 458.197 302.973 474.317 288.355 475.216C273.738 476.114 276.908 488.138 276.908 488.138H332.766V459.321L305.984 458.197L305.985 458.197Z" fill="#FFD803"/>
<path d="M337.854 409.71C337.854 409.71 342.043 425.548 329.311 433.017C316.579 440.485 324.564 449.83 324.564 449.83L374.686 424.37L362.367 398.512L337.855 409.71H337.854Z" fill="#FFD803"/>
<path d="M332.551 420.178L294.783 273.036C291.917 256.781 296.231 249.735 302.877 242.89C314.553 230.865 362.933 205.27 362.933 205.27L420.974 205.107C436.364 205.107 451.494 220.777 451.494 236.669C451.494 252.56 435.848 266.036 420.458 266.036L348.985 273.401L368.359 408.129L332.551 420.178Z" fill="#262626"/>
<path d="M368.36 408.129L360.732 355.088L322.091 379.427L332.551 420.178L368.36 408.129Z" fill="#0C0C0C"/>
<path d="M377.119 235.046C377.119 235.046 352.72 240.661 328.555 265.613C313.904 280.742 315.106 308.118 317.303 360.773L341.304 324.169L367.627 275.146L377.119 235.046Z" fill="#0C0C0C"/>
<path d="M461.598 205.089L422.182 204.897L422.166 205.433H410.231C410.231 205.433 380.335 233.841 356.264 251.742C338.755 264.762 328.074 277.175 327.15 290.705C324.897 323.684 299.487 464.339 299.487 464.339L337.729 470.318L371.286 302.226C371.286 302.226 423.764 277.246 435.902 268.553C447.331 260.366 455.405 257.203 459.187 248.269C465.72 232.84 461.598 205.089 461.598 205.089V205.089Z" fill="#262626"/>
<path d="M417.377 215.342L353.431 216.217L389.301 238.338L419.148 222.423C422.511 220.56 421.193 215.29 417.377 215.342Z" fill="#292A2E"/>
<path opacity="0.2" d="M417.377 215.342L353.431 216.217L389.301 238.338L419.148 222.423C422.511 220.56 421.193 215.29 417.377 215.342Z" fill="white"/>
<path d="M353.798 96.8873L335.713 157.4L299.486 206.377L320.648 231.461L363.748 181.789C365.655 180.232 367.266 178.125 368.261 175.64L368.932 173.962L393.824 111.769L353.798 96.8867L353.798 96.8873Z" fill="#FFD803"/>
<path d="M385.384 80.682C385.499 80.6663 386.771 102.462 411.292 100.562C428.268 99.2491 434.321 80.6512 434.71 80.6512C432.88 80.2493 430.618 79.6397 429.719 79.4309C426.733 78.736 423.004 76.191 422.143 70.8311C421.646 67.7414 422.489 51.9362 422.229 48.8105L396.171 54.8165C396.535 61.4182 399.084 76.7228 390.152 79.4315C388.666 79.8792 387.065 80.2916 385.384 80.6825V80.682Z" fill="#FF9E85"/>
<path opacity="0.22" d="M395.806 73.176C396.175 71.9597 396.395 70.9018 396.59 69C396.938 65.5988 396.753 62.4726 396.419 59.2866C401.684 58.5633 406.737 56.2769 410.822 52.7714C411.305 54.6164 413.967 62.679 413.23 64.433C411.837 67.7477 405.292 73.176 395.806 73.176Z" fill="#0C0C0C"/>
<path d="M380.31 31.564C380.31 31.564 372.832 25.826 370.893 12.5003C369.392 2.18256 378.667 8.80277 378.667 8.80277C378.667 8.80277 377.656 1.36243 382.914 2.06134C388.172 2.75967 391.174 10.5608 391.174 10.5608" fill="#0C0C0C"/>
<path d="M410.083 2.72314C410.083 2.72314 436.177 5.40858 427.016 41.963L424.71 42.1404L420.03 42.5006" fill="#0C0C0C"/>
<path d="M400.745 68.4484C411.018 67.4171 423.274 60.6154 423.347 46.2045L423.413 33.2019C423.486 18.7916 416.215 7.06968 403.075 6.99892C389.935 6.92758 380.054 18.5567 379.981 32.967L379.952 38.7236C379.946 39.9085 380.056 42.0354 380.412 44.6281C381.123 49.8006 382.225 57.6655 385.667 62.965C388.917 67.9681 394.182 69.1073 400.745 68.4484Z" fill="#FF9E85"/>
<path d="M386.622 42.3237C387.405 42.2067 387.948 41.4563 387.835 40.6476C387.722 39.8388 386.995 39.278 386.212 39.3949C385.428 39.5119 384.885 40.2623 384.999 41.0711C385.112 41.8798 385.839 42.4406 386.622 42.3237Z" fill="#0A0A0A"/>
<path d="M396.133 50.0552C396.42 50.0123 396.635 49.7519 396.623 49.4462C396.61 49.1197 396.344 48.865 396.027 48.8784L392.978 49.0025L393.959 42.5308C394.008 42.2077 393.794 41.9049 393.481 41.8545C393.169 41.804 392.876 42.0244 392.826 42.3475L391.738 49.5309C391.711 49.706 391.762 49.8835 391.876 50.0158C391.99 50.148 392.156 50.2205 392.327 50.2135L396.073 50.061C396.093 50.0604 396.114 50.0581 396.133 50.0552Z" fill="#0A0A0A"/>
<path d="M397.729 56.5884C402.871 55.8205 403.951 52.3839 403.999 52.2233C404.091 51.9107 403.921 51.5801 403.618 51.4843C403.318 51.3886 402.998 51.5632 402.904 51.873C402.859 52.0191 401.73 55.404 395.975 55.5508C395.652 55.5577 395.408 55.8303 395.415 56.1569C395.423 56.4834 395.686 56.7421 396.002 56.734C396.623 56.7183 397.198 56.6673 397.729 56.5884Z" fill="#0A0A0A"/>
<path d="M398.753 32.6196C398.678 33.0761 400.306 33.4989 402.552 33.7744C404.797 34.0499 406.813 34.1891 406.883 33.6167C406.972 32.894 405.132 31.4979 402.887 31.223C400.642 30.9475 398.871 31.9016 398.753 32.6196Z" fill="#0A0A0A"/>
<path d="M401.591 41.2094C402.374 41.0925 402.917 40.3421 402.804 39.5333C402.69 38.7246 401.964 38.1637 401.18 38.2807C400.397 38.3976 399.854 39.1481 399.967 39.9568C400.081 40.7655 400.807 41.3264 401.591 41.2094Z" fill="#0A0A0A"/>
<path d="M381.573 35.4976C381.684 35.9465 383.338 35.6507 385.499 34.9617C387.659 34.2726 389.557 33.5552 389.396 33.0024C389.193 32.3047 387.186 31.7154 385.026 32.4038C382.865 33.0929 381.399 34.7912 381.574 35.497L381.573 35.4976Z" fill="#0A0A0A"/>
<path d="M422.509 50.5905C426.502 50.612 429.761 46.2184 429.782 42.0952C429.803 37.9719 426.578 35.6803 422.584 35.6588L420.513 38.4104L419.075 50.572L422.509 50.5905Z" fill="#FF9E85"/>
<path d="M419.704 43.8741C419.038 43.9408 418.445 43.4431 418.377 42.7564C417.938 38.3193 416.094 23.4358 410.996 22.4051C407.002 21.5972 397.374 27.5127 388.404 25.8179C384.48 25.0766 380.767 26.1067 380.403 28.0207C380.259 28.7788 377.739 17.9228 383.815 9.62175C388.653 3.01256 404.628 1.03416 411.918 3.13262C432.102 8.94372 423.414 36.5509 423.414 36.5509L422.687 42.5894C422.616 43.1723 422.164 43.627 421.597 43.6838L419.704 43.8741Z" fill="#0C0C0C"/>
<path d="M397.667 9.60866C398.544 5.10973 396.854 0.964233 393.894 0.349425C390.934 -0.265384 387.824 2.88331 386.948 7.38224C386.071 11.8812 387.76 16.0267 390.721 16.6415C393.681 17.2563 396.791 14.1076 397.667 9.60866Z" fill="#0C0C0C"/>
<path d="M356.081 127.484C356.838 136.668 362.205 193.959 362.933 205.27H461.555C462.122 195.069 464.666 150.46 466.815 130.51C468.866 111.474 471.741 102.811 469.378 96.8949C465.212 86.4611 451.949 81.8014 442.968 80.5456C437.483 79.7789 429.234 79.2296 429.234 79.2296C429.234 79.2296 428.536 93.8185 411.883 94.6306C389.212 95.7349 390.727 79.2296 390.614 79.2296C386.942 79.2296 366.951 81.9876 361.952 85.3516C354.892 90.103 352.805 96.5788 352.723 102.528C352.628 109.378 355.221 117.069 356.081 127.484Z" fill="#FFD803"/>
<path d="M361.082 182.694C360.938 182.694 360.815 182.581 360.803 182.429L357.066 138.302C357.053 138.143 357.167 138.002 357.321 137.988C357.479 137.97 357.613 138.092 357.626 138.252L361.362 182.379C361.376 182.538 361.261 182.679 361.107 182.693C361.098 182.694 361.09 182.694 361.082 182.694Z" fill="#0C0C0C"/>
<path d="M368.233 208.326L381.775 196.982L379.496 197.647C377.966 198.026 376.319 197.182 375.873 195.624C375.396 193.962 376.37 192.249 377.981 191.85L406.43 184.705L408.877 194.062C410.432 200.007 408.338 206.332 403.584 210.05L393.043 218.264C391.922 219.14 390.322 219.161 389.277 218.19C388.269 217.252 388.063 215.846 388.554 214.712C388.511 214.697 388.468 214.675 388.435 214.636C388.374 214.562 388.361 214.466 388.384 214.378L386.442 215.897C385.188 216.878 383.352 216.787 382.338 215.545C381.403 214.4 381.447 212.773 382.327 211.685C382.296 211.681 382.269 211.67 382.241 211.655L381.443 212.279C380.322 213.155 378.721 213.175 377.677 212.204C376.455 211.068 376.408 209.244 377.355 208.052C377.343 208.035 377.333 208.017 377.326 207.998L371.687 212.722C370.511 213.707 368.785 213.521 367.831 212.307C366.877 211.093 367.057 209.311 368.232 208.325L368.233 208.326Z" fill="#FF9E85"/>
<path opacity="0.2" d="M377.671 208.164C377.7 208.153 377.728 208.137 377.753 208.115L383.178 203.461C383.294 203.362 383.31 203.183 383.214 203.064C383.118 202.944 382.945 202.928 382.83 203.027L377.404 207.682C377.288 207.781 377.272 207.959 377.369 208.079C377.444 208.173 377.566 208.203 377.671 208.164Z" fill="#0A0A0A"/>
<path opacity="0.2" d="M382.453 211.68C382.481 211.67 382.508 211.654 382.533 211.633L386.825 208.009C386.942 207.911 386.959 207.733 386.864 207.612C386.768 207.492 386.596 207.473 386.479 207.572L382.187 211.196C382.071 211.295 382.053 211.472 382.149 211.593C382.224 211.688 382.346 211.719 382.453 211.68Z" fill="#0A0A0A"/>
<path opacity="0.2" d="M388.735 214.718C388.765 214.706 388.794 214.689 388.82 214.666L390.809 212.906C390.923 212.805 390.936 212.627 390.838 212.508C390.74 212.389 390.568 212.375 390.453 212.478L388.465 214.238C388.35 214.339 388.337 214.517 388.435 214.635C388.511 214.727 388.631 214.756 388.734 214.717L388.735 214.718Z" fill="#0A0A0A"/>
<path d="M487.917 180.539L487.813 180.063L469.814 97.8513L434.202 106.165L448.251 170.336L391.967 184.618L398.894 217.411L473.897 202.637C474.068 202.602 474.315 202.55 474.486 202.51C484.071 200.273 490.084 190.436 487.917 180.539Z" fill="#FFD803"/>
<path d="M391.693 184.678C391.661 184.525 391.753 184.375 391.901 184.337L447.932 170.128L438.821 128.579C438.786 128.423 438.881 128.268 439.033 128.232C439.184 128.196 439.334 128.295 439.369 128.451L448.54 170.278C448.575 170.432 448.482 170.586 448.334 170.624L392.298 184.833C392.298 184.833 392.673 186.525 392.78 187.092C392.814 187.278 392.64 187.376 392.576 187.392C392.508 187.41 392.294 187.432 392.236 187.158C392.107 186.537 391.692 184.679 391.692 184.679L391.693 184.678Z" fill="#0C0C0C"/>
<path d="M393.889 230.47L372.249 161.784C371.469 159.308 369.234 157.631 366.712 157.631H278.551C274.595 157.631 271.791 161.618 273.015 165.503L294.654 234.19C295.435 236.666 297.67 238.342 300.191 238.342H388.352C392.308 238.342 395.113 234.355 393.889 230.47Z" fill="#292A2E"/>
<path opacity="0.2" d="M393.889 230.47L372.249 161.784C371.469 159.308 369.234 157.631 366.712 157.631H278.551C274.595 157.631 271.791 161.618 273.015 165.503L294.654 234.19C295.435 236.666 297.67 238.342 300.191 238.342H388.352C392.308 238.342 395.113 234.355 393.889 230.47Z" fill="white"/>
<path d="M330.912 207.534C336.019 207.534 340.158 203.26 340.158 197.987C340.158 192.714 336.019 188.439 330.912 188.439C325.805 188.439 321.666 192.714 321.666 197.987C321.666 203.26 325.805 207.534 330.912 207.534Z" fill="white"/>
<path d="M58.3221 281.619C78.4484 281.619 94.764 264.772 94.764 243.99C94.764 223.208 78.4484 206.361 58.3221 206.361C38.1958 206.361 21.8802 223.208 21.8802 243.99C21.8802 264.772 38.1958 281.619 58.3221 281.619Z" fill="#292A2E"/>
<path d="M50.757 239.08C49.7577 239.08 48.9478 238.244 48.9478 237.212V228.168C48.9478 223.168 53.1533 219.099 58.3221 219.099C63.4909 219.099 67.6964 223.167 67.6964 228.168V236.59C67.6964 237.622 66.8864 238.458 65.8872 238.458C64.8879 238.458 64.0779 237.622 64.0779 236.59V228.168C64.0779 225.227 61.4957 222.835 58.3215 222.835C55.1473 222.835 52.5652 225.227 52.5652 228.168V237.212C52.5652 238.244 51.7552 239.08 50.7559 239.08H50.757Z" fill="white"/>
<path d="M69.8629 235.648H46.7812C45.4352 235.648 44.344 236.775 44.344 238.165V260.615C44.344 262.005 45.4352 263.131 46.7812 263.131H69.8629C71.209 263.131 72.3002 262.005 72.3002 260.615V238.165C72.3002 236.775 71.209 235.648 69.8629 235.648Z" fill="white"/>
<path d="M56.0241 247.167C56.0241 248.109 56.5527 248.915 57.3183 249.303V252.949C57.3183 253.526 57.7705 253.985 58.3215 253.985C58.8731 253.985 59.3247 253.526 59.3247 252.949V249.303C60.0909 248.915 60.6189 248.109 60.6189 247.167C60.6189 245.855 59.5927 244.794 58.321 244.794C57.0493 244.794 56.023 245.854 56.023 247.167H56.0241Z" fill="#292A2E"/>
<path d="M235.056 125.15H90.6371C87.1896 125.15 84.3949 128.036 84.3949 131.596V152.501C84.3949 156.061 87.1896 158.947 90.6371 158.947H235.056C238.504 158.947 241.298 156.061 241.298 152.501V131.596C241.298 128.036 238.504 125.15 235.056 125.15Z" fill="white"/>
<path d="M235.056 159.526H90.6371C86.8855 159.526 83.8332 156.375 83.8332 152.501V131.596C83.8332 127.722 86.8855 124.57 90.6371 124.57H235.056C238.807 124.57 241.859 127.722 241.859 131.596V152.501C241.859 156.375 238.807 159.526 235.056 159.526ZM90.6371 125.729C87.5045 125.729 84.9566 128.361 84.9566 131.595V152.5C84.9566 155.735 87.505 158.366 90.6371 158.366H235.056C238.188 158.366 240.736 155.734 240.736 152.5V131.595C240.736 128.36 238.188 125.729 235.056 125.729H90.6371Z" fill="#292A2E"/>
<path d="M235.056 173.449H90.6371C87.1896 173.449 84.3949 176.335 84.3949 179.895V200.801C84.3949 204.361 87.1896 207.246 90.6371 207.246H235.056C238.504 207.246 241.298 204.361 241.298 200.801V179.895C241.298 176.335 238.504 173.449 235.056 173.449Z" fill="white"/>
<path d="M235.056 207.826H90.6371C86.8855 207.826 83.8332 204.674 83.8332 200.8V179.895C83.8332 176.021 86.8855 172.87 90.6371 172.87H235.056C238.807 172.87 241.859 176.021 241.859 179.895V200.8C241.859 204.674 238.807 207.826 235.056 207.826ZM90.6371 174.029C87.5045 174.029 84.9566 176.66 84.9566 179.895V200.8C84.9566 204.034 87.505 206.665 90.6371 206.665H235.056C238.188 206.665 240.736 204.034 240.736 200.8V179.895C240.736 176.66 238.188 174.029 235.056 174.029H90.6371Z" fill="#292A2E"/>
<path d="M162.846 100.011C181.365 100.011 196.377 84.5095 196.377 65.3877C196.377 46.266 181.365 30.7648 162.846 30.7648C144.328 30.7648 129.316 46.266 129.316 65.3877C129.316 84.5095 144.328 100.011 162.846 100.011Z" fill="white"/>
<path d="M162.846 100.591C144.048 100.591 128.754 84.7988 128.754 65.3877C128.754 45.9766 144.048 30.1848 162.846 30.1848C181.644 30.1848 196.939 45.9772 196.939 65.3877C196.939 84.7982 181.645 100.591 162.846 100.591ZM162.846 31.3448C144.667 31.3448 129.877 46.6164 129.877 65.3877C129.877 84.1591 144.667 99.4307 162.846 99.4307C181.025 99.4307 195.815 84.1591 195.815 65.3877C195.815 46.6164 181.025 31.3448 162.846 31.3448Z" fill="#292A2E"/>
<path opacity="0.5" d="M195.632 65.3877C195.632 73.7352 192.703 81.3658 187.864 87.2656C181.816 79.9981 172.85 75.3917 162.846 75.3917C152.843 75.3917 143.876 79.9981 137.829 87.2749C132.989 81.3658 130.061 73.7352 130.061 65.3877C130.061 46.6929 144.741 31.5339 162.846 31.5339C180.951 31.5339 195.632 46.6929 195.632 65.3877Z" fill="#FFD803"/>
<path d="M187.864 87.265C181.853 94.5981 172.877 99.2416 162.846 99.2416C152.816 99.2416 143.849 94.5981 137.829 87.2743C143.876 79.9975 152.834 75.3911 162.846 75.3911C172.859 75.3911 181.817 79.9975 187.864 87.265Z" fill="white"/>
<path d="M162.847 69.0749C170.166 69.0749 176.099 62.9483 176.099 55.3908C176.099 47.8333 170.166 41.7067 162.847 41.7067C155.528 41.7067 149.595 47.8333 149.595 55.3908C149.595 62.9483 155.528 69.0749 162.847 69.0749Z" fill="white"/>
<g opacity="0.4">
<path d="M96.5513 194.464C98.7527 194.464 100.537 192.621 100.537 190.348C100.537 188.075 98.7527 186.232 96.5513 186.232C94.35 186.232 92.5655 188.075 92.5655 190.348C92.5655 192.621 94.35 194.464 96.5513 194.464Z" fill="#292A2E"/>
<path d="M109.02 194.464C111.221 194.464 113.005 192.621 113.005 190.348C113.005 188.075 111.221 186.232 109.02 186.232C106.818 186.232 105.034 188.075 105.034 190.348C105.034 192.621 106.818 194.464 109.02 194.464Z" fill="#292A2E"/>
<path d="M121.488 194.464C123.689 194.464 125.474 192.621 125.474 190.348C125.474 188.075 123.689 186.232 121.488 186.232C119.286 186.232 117.502 188.075 117.502 190.348C117.502 192.621 119.286 194.464 121.488 194.464Z" fill="#292A2E"/>
<path d="M133.956 194.464C136.157 194.464 137.942 192.621 137.942 190.348C137.942 188.075 136.157 186.232 133.956 186.232C131.755 186.232 129.97 188.075 129.97 190.348C129.97 192.621 131.755 194.464 133.956 194.464Z" fill="#292A2E"/>
<path d="M146.424 194.464C148.625 194.464 150.41 192.621 150.41 190.348C150.41 188.075 148.625 186.232 146.424 186.232C144.222 186.232 142.438 188.075 142.438 190.348C142.438 192.621 144.222 194.464 146.424 194.464Z" fill="#292A2E"/>
<path d="M158.892 194.464C161.093 194.464 162.878 192.621 162.878 190.348C162.878 188.075 161.093 186.232 158.892 186.232C156.691 186.232 154.906 188.075 154.906 190.348C154.906 192.621 156.691 194.464 158.892 194.464Z" fill="#292A2E"/>
<path d="M171.36 194.464C173.561 194.464 175.346 192.621 175.346 190.348C175.346 188.075 173.561 186.232 171.36 186.232C169.159 186.232 167.374 188.075 167.374 190.348C167.374 192.621 169.159 194.464 171.36 194.464Z" fill="#292A2E"/>
</g>
</g>
<defs>
<clipPath id="clip0_99_2">
<rect width="500" height="500" fill="white"/>
</clipPath>
</defs>
</svg>
